<svg xmlns="http://www.w3.org/2000/svg" viewBox="0 0 440 440"><rect width="440" height="440" fill="#dce5cd"/><g opacity=".25" fill="#839c73"><circle cx="42" cy="55" r="3"/><circle cx="383" cy="200" r="4"/><circle cx="53" cy="250" r="5"/><circle cx="345" cy="383" r="3"/></g><path d="M0 317Q156 290 440 332V440H0Z" fill="#b4c39a"/><rect x="95" y="177" width="97" height="149" rx="4" fill="#edb482"/><rect x="204" y="128" width="132" height="200" rx="5" fill="#7c9680"/><path d="M196 132L270 73L344 132Z" fill="#506d61"/><path d="M117 201H134V222H117ZM154 201H171V222H154ZM117 242H134V263H117ZM154 242H171V263H154Z" fill="#f9f0d4"/><path d="M228 164H250V192H228ZM288 164H310V192H288ZM228 212H250V240H228ZM288 212H310V240H288Z" fill="#dce5cd"/><rect x="257" y="268" width="26" height="60" fill="#506d61"/><circle cx="361" cy="69" r="29" fill="#f1c674"/><path d="M29 402H411" stroke="#839c73" stroke-width="1" opacity=".4"/></svg>